<svg xmlns="http://www.w3.org/2000/svg" viewBox="0 0 953.92 912.15"><defs><style>.cls-1{fill:none;stroke:#231f20;stroke-miterlimit:10;stroke-width:18px;}</style></defs><g id="Layer_2" data-name="Layer 2"><g id="Layer_5" data-name="Layer 5"><path class="cls-1" d="M501.23,16.27c-13.35-9.69-35.19-9.69-48.54,0L25.7,326.5c-13.35,9.7-20.1,30.47-15,46.16l163.1,502c5.1,15.69,22.77,28.53,39.27,28.53H740.85c16.5,0,34.17-12.84,39.27-28.53l163.1-502c5.1-15.69-1.65-36.46-15-46.16Z"/><path class="cls-1" d="M541.05,45.2,187.72,301.91c-13.35,9.7-20.1,30.47-15,46.17L298.26,734.46"/><path class="cls-1" d="M69.32,294.81,203.47,705.94c5.11,15.68,22.8,28.52,39.3,28.52H658.7"/><path class="cls-1" d="M155.87,819.45H601.08c16.5,0,34.17-12.84,39.27-28.53L770.08,391.66"/><path class="cls-1" d="M686,903.15l141.24-434.7c5.1-15.69-1.65-36.47-15-46.16L478.48,179.8"/><path class="cls-1" d="M927.94,419.67,562.4,154.09c-13.35-9.69-35.19-9.69-48.54,0l-327,237.57"/></g></g></svg>